{"accessors" : [{"bufferView" : 0, "byteOffset" : 0, "componentType" : 5123, "count" : 132, "type" : "SCALAR", "max" : [50], "min" : [0]}, {"bufferView" : 1, "byteOffset" : 0, "componentType" : 5126, "count" : 51, "type" : "VEC3", "max" : [3.0749289989471436, 8.62835693359375, -3.1139230728149414], "min" : [0.6462680101394653, 6.137541770935059, -5.379408836364746], "name" : "POSITION"}, {"bufferView" : 1, "byteOffset" : 12, "componentType" : 5126, "count" : 51, "type" : "VEC3", "max" : [0.6644401550292969, 0.7072431445121765, 0.7473451495170593], "min" : [-0.6644401550292969, -0.7072431445121765, -0.7473893165588379], "name" : "NORMAL"}, {"bufferView" : 0, "byteOffset" : 264, "componentType" : 5123, "count" : 1164, "type" : "SCALAR", "max" : [488], "min" : [0]}, {"bufferView" : 2, "byteOffset" : 0, "componentType" : 5126, "count" : 489, "type" : "VEC3", "max" : [4.333242893218994, 8.661216735839844, 3.1337740421295166], "min" : [2.597156047821045, 6.104681968688965, 0.28114598989486694], "name" : "POSITION"}, {"bufferView" : 2, "byteOffset" : 12, "componentType" : 5126, "count" : 489, "type" : "VEC3", "max" : [0.9178704619407654, 0.9999517798423767, 0.9176945090293884], "min" : [-0.9178184270858765, -0.9999013543128967, -0.9177295565605164], "name" : "NORMAL"}, {"bufferView" : 0, "byteOffset" : 2592, "componentType" : 5123, "count" : 84, "type" : "SCALAR", "max" : [43], "min" : [0]}, {"bufferView" : 3, "byteOffset" : 0, "componentType" : 5126, "count" : 44, "type" : "VEC3", "max" : [-0.09434700012207031, 8.62835693359375, 5.642352104187012], "min" : [-2.704435110092163, 6.137541770935059, 4.963253021240234], "name" : "POSITION"}, {"bufferView" : 3, "byteOffset" : 12, "componentType" : 5126, "count" : 44, "type" : "VEC3", "max" : [0.7072597742080688, 1.0000044107437134, 1.0000026226043701], "min" : [-0.7072597742080688, -1.0000044107437134, -1.0000026226043701], "name" : "NORMAL"}, {"bufferView" : 0, "byteOffset" : 2760, "componentType" : 5123, "count" : 1128, "type" : "SCALAR", "max" : [443], "min" : [0]}, {"bufferView" : 4, "byteOffset" : 0, "componentType" : 5126, "count" : 444, "type" : "VEC3", "max" : [-5.758883953094482, 8.62835693359375, 3.118828058242798], "min" : [-7.114043235778809, 6.137541770935059, 0.6142839789390564], "name" : "POSITION"}, {"bufferView" : 4, "byteOffset" : 12, "componentType" : 5126, "count" : 444, "type" : "VEC3", "max" : [0.9562073945999146, 0.9998484253883362, 0.956138551235199], "min" : [-0.9563543796539307, -0.9999228715896606, -0.9559574723243713], "name" : "NORMAL"}, {"bufferView" : 0, "byteOffset" : 5016, "componentType" : 5123, "count" : 132, "type" : "SCALAR", "max" : [43], "min" : [0]}, {"bufferView" : 5, "byteOffset" : 0, "componentType" : 5126, "count" : 44, "type" : "VEC3", "max" : [-3.5489859580993652, 8.642960548400879, -2.8443119525909424], "min" : [-6.210937976837158, 6.137541770935059, -5.453823089599609], "name" : "POSITION"}, {"bufferView" : 5, "byteOffset" : 12, "componentType" : 5126, "count" : 44, "type" : "VEC3", "max" : [0.6960228681564331, 0.8623173236846924, 0.7180235385894775], "min" : [-0.6960228681564331, -0.9998796582221985, -0.7180235385894775], "name" : "NORMAL"}, {"bufferView" : 0, "byteOffset" : 5280, "componentType" : 5123, "count" : 912, "type" : "SCALAR", "max" : [463], "min" : [0]}, {"bufferView" : 6, "byteOffset" : 0, "componentType" : 5126, "count" : 464, "type" : "VEC3", "max" : [1.249521017074585, 11.919158935546875, 0.4391629993915558], "min" : [-4.292831897735596, 1.4691829681396484, -0.4684610068798065], "name" : "POSITION"}, {"bufferView" : 6, "byteOffset" : 12, "componentType" : 5126, "count" : 464, "type" : "VEC3", "max" : [1.0000044107437134, 1.0000042915344238, 1.0000042915344238], "min" : [-1.0000044107437134, -1.0000042915344238, -1.0000042915344238], "name" : "NORMAL"}], "asset" : {"generator" : "Aspose.3D 21.6", "version" : "2.0"}, "buffers" : [{"uri" : "data:application/octet-stream;base64,", "byteLength" : 92380}], "bufferViews" : [{"buffer" : 0, "byteOffset" : 0, "byteLength" : 7104, "target" : 34963}, {"buffer" : 0, "byteOffset" : 7108, "byteLength" : 3168, "byteStride" : 24, "target" : 34962}, {"buffer" : 0, "byteOffset" : 10280, "byteLength" : 27936, "byteStride" : 24, "target" : 34962}, {"buffer" : 0, "byteOffset" : 38220, "byteLength" : 2016, "byteStride" : 24, "target" : 34962}, {"buffer" : 0, "byteOffset" : 40240, "byteLength" : 27072, "byteStride" : 24, "target" : 34962}, {"buffer" : 0, "byteOffset" : 67316, "byteLength" : 3168, "byteStride" : 24, "target" : 34962}, {"buffer" : 0, "byteOffset" : 70488, "byteLength" : 21888, "byteStride" : 24, "target" : 34962}], "meshes" : [{"primitives" : [{"attributes" : {"POSITION" : 1, "NORMAL" : 2}, "indices" : 0, "mode" : 4}], "name" : ""}, {"primitives" : [{"attributes" : {"POSITION" : 4, "NORMAL" : 5}, "indices" : 3, "mode" : 4}], "name" : ""}, {"primitives" : [{"attributes" : {"POSITION" : 7, "NORMAL" : 8}, "indices" : 6, "mode" : 4}], "name" : ""}, {"primitives" : [{"attributes" : {"POSITION" : 10, "NORMAL" : 11}, "indices" : 9, "mode" : 4}], "name" : ""}, {"primitives" : [{"attributes" : {"POSITION" : 13, "NORMAL" : 14}, "indices" : 12, "mode" : 4}], "name" : ""}, {"primitives" : [{"attributes" : {"POSITION" : 16, "NORMAL" : 17}, "indices" : 15, "mode" : 4}], "name" : ""}], "nodes" : [{"mesh" : 0, "name" : "Text.004_Text.005"}, {"mesh" : 1, "name" : "Text.003_Text.004"}, {"mesh" : 2, "name" : "Text.002_Text.003"}, {"mesh" : 3, "name" : "Text.001_Text.002"}, {"mesh" : 4, "name" : "Text_Text.001"}, {"mesh" : 5, "name" : "Cube_Cube.001"}], "scene" : 0, "scenes" : [{"nodes" : [0, 1, 2, 3, 4, 5]}]}