# Blender v2.79 (sub 0) OBJ File: 'untitled.blend'
# www.blender.org
mtllib line.mtl
o Circle_Circle.001
v -1.788839 3.493529 0.980978
v -2.482612 3.501884 1.638432
v -3.143010 3.549176 2.278460
v -3.744654 3.633587 2.876465
v -4.264423 3.751872 3.409467
v -4.682343 3.899487 3.856983
v -4.982354 4.070758 4.201814
v -5.152925 4.259104 4.430709
v -5.187502 4.457286 4.534872
v -5.084757 4.657690 4.510299
v -4.848637 4.852612 4.357936
v -4.488218 5.034563 4.083638
v -4.017348 5.196549 3.697944
v -3.454124 5.332348 3.215678
v -2.820190 5.436738 2.655372
v -2.139908 5.505710 2.038559
v -1.439421 5.536611 1.388944
v -0.745647 5.528255 0.731489
v -0.085249 5.480964 0.091461
v 0.516395 5.396553 -0.506544
v 1.036164 5.278267 -1.039546
v 1.454083 5.130652 -1.487061
v 1.754093 4.959381 -1.831892
v 1.924664 4.771035 -2.060787
v 1.959241 4.572852 -2.164949
v 1.856495 4.372449 -2.140377
v 1.620375 4.177526 -1.988012
v 1.259953 3.995576 -1.713712
v 0.789083 3.833589 -1.328018
v 0.225859 3.697791 -0.845752
v -0.408075 3.593401 -0.285446
v -1.088357 3.524430 0.331367
v -1.509086 3.386465 1.277545
v -2.202859 3.394821 1.934999
v -2.863257 3.442112 2.575027
v -3.464901 3.526523 3.173033
v -3.984670 3.644809 3.706034
v -4.402591 3.792423 4.153550
v -4.702601 3.963695 4.498381
v -4.873172 4.152040 4.727276
v -4.907750 4.350223 4.831439
v -4.805004 4.550626 4.806867
v -4.568884 4.745548 4.654503
v -4.208465 4.927499 4.380205
v -3.737595 5.089486 3.994511
v -3.174371 5.225284 3.512245
v -2.540438 5.329675 2.951940
v -1.860156 5.398646 2.335127
v -1.159668 5.429547 1.685511
v -0.465895 5.421192 1.028056
v 0.194503 5.373900 0.388028
v 0.796147 5.289489 -0.209977
v 1.315916 5.171204 -0.742979
v 1.733836 5.023589 -1.190494
v 2.033846 4.852317 -1.535325
v 2.204417 4.663971 -1.764220
v 2.238993 4.465788 -1.868382
v 2.136248 4.265385 -1.843809
v 1.900127 4.070463 -1.691445
v 1.539706 3.888512 -1.417145
v 1.068836 3.726526 -1.031451
v 0.505612 3.590728 -0.549184
v -0.128322 3.486337 0.011121
v -0.808605 3.417366 0.627934
v -2.548315 3.439617 1.677931
v -1.854542 3.431261 1.020476
v -3.208713 3.486908 2.317959
v -3.810357 3.571319 2.915964
v -4.330126 3.689604 3.448966
v -4.748046 3.837219 3.896482
v -5.048057 4.008490 4.241312
v -5.218627 4.196836 4.470207
v -5.253205 4.395019 4.574370
v -5.150460 4.595422 4.549798
v -4.914340 4.790344 4.397435
v -4.553921 4.972295 4.123136
v -4.083051 5.134282 3.737442
v -3.519827 5.270080 3.255176
v -2.885893 5.374471 2.694871
v -2.205611 5.443442 2.078058
v -1.505124 5.474343 1.428442
v -0.811350 5.465988 0.770987
v -0.150952 5.418695 0.130959
v 0.450692 5.334285 -0.467046
v 0.970461 5.215999 -1.000048
v 1.388380 5.068384 -1.447563
v 1.688390 4.897113 -1.792394
v 1.858961 4.708767 -2.021288
v 1.893538 4.510584 -2.125451
v 1.790792 4.310181 -2.100878
v 1.554672 4.115259 -1.948514
v 1.194250 3.933308 -1.674214
v 0.723380 3.771321 -1.288520
v 0.160156 3.635523 -0.806253
v -0.473778 3.531133 -0.245947
v -1.154060 3.462162 0.370866
v -2.268563 3.332553 1.974498
v -1.574789 3.324197 1.317043
v -2.928961 3.379845 2.614526
v -3.530604 3.464255 3.212531
v -4.050374 3.582541 3.745533
v -4.468294 3.730155 4.193049
v -4.768304 3.901427 4.537879
v -4.938875 4.089772 4.766774
v -4.973453 4.287955 4.870937
v -4.870707 4.488358 4.846365
v -4.634588 4.683280 4.694002
v -4.274168 4.865231 4.419703
v -3.803298 5.027218 4.034009
v -3.240075 5.163016 3.551743
v -2.606141 5.267407 2.991438
v -1.925858 5.336378 2.374625
v -1.225371 5.367280 1.725009
v -0.531598 5.358924 1.067555
v 0.128800 5.311632 0.427527
v 0.730444 5.227221 -0.170479
v 1.250213 5.108935 -0.703481
v 1.668133 4.961321 -1.150995
v 1.968142 4.790049 -1.495826
v 2.138713 4.601703 -1.724721
v 2.173290 4.403521 -1.828883
v 2.070544 4.203117 -1.804311
v 1.834424 4.008195 -1.651946
v 1.474003 3.826244 -1.377646
v 1.003133 3.664258 -0.991952
v 0.439909 3.528460 -0.509686
v -0.194025 3.424069 0.050620
v -0.874308 3.355098 0.667433
vn 0.2478 0.9621 0.1135
vn 0.0808 0.9594 0.2702
vn -0.1809 -0.9672 -0.1786
vn 0.2900 0.9544 0.0710
vn 0.1174 0.9643 0.2373
vn -0.2127 -0.9658 -0.1481
vn 0.3454 0.9384 0.0130
vn 0.1499 0.9667 0.2076
vn -0.2478 -0.9621 -0.1135
vn 0.4263 0.9013 -0.0768
vn -0.2900 -0.9544 -0.0710
vn 0.5575 0.7951 -0.2388
vn -0.3454 -0.9384 -0.0130
vn 0.7323 0.4125 -0.5418
vn -0.4263 -0.9013 0.0768
vn 0.5948 -0.3911 -0.7023
vn -0.5575 -0.7951 0.2388
vn 0.2878 -0.7814 -0.5536
vn -0.7323 -0.4125 0.5418
vn 0.1195 -0.8925 -0.4350
vn -0.5948 0.3911 0.7023
vn 0.0254 -0.9324 -0.3606
vn -0.2878 0.7814 0.5536
vn -0.0358 -0.9503 -0.3093
vn -0.1195 0.8925 0.4350
vn -0.0808 -0.9594 -0.2702
vn 0.1809 0.9672 0.1786
vn -0.0254 0.9324 0.3606
vn -0.1174 -0.9643 -0.2373
vn 0.2127 0.9658 0.1481
vn 0.0358 0.9503 0.3093
vn -0.1499 -0.9667 -0.2076
vn 0.1195 -0.8925 -0.4349
vn 0.6637 -0.2540 0.7036
vn -0.6637 0.2540 -0.7036
vn -0.6637 0.2540 -0.7035
usemtl None
s off
f 4//1 36//1 35//1 3//1
f 31//2 63//2 62//2 30//2
f 18//3 50//3 49//3 17//3
f 5//4 37//4 36//4 4//4
f 32//5 64//5 63//5 31//5
f 19//6 51//6 50//6 18//6
f 6//7 38//7 37//7 5//7
f 1//8 33//8 64//8 32//8
f 20//9 52//9 51//9 19//9
f 7//10 39//10 38//10 6//10
f 21//11 53//11 52//11 20//11
f 8//12 40//12 39//12 7//12
f 22//13 54//13 53//13 21//13
f 9//14 41//14 40//14 8//14
f 23//15 55//15 54//15 22//15
f 10//16 42//16 41//16 9//16
f 24//17 56//17 55//17 23//17
f 11//18 43//18 42//18 10//18
f 25//19 57//19 56//19 24//19
f 12//20 44//20 43//20 11//20
f 26//21 58//21 57//21 25//21
f 13//22 45//22 44//22 12//22
f 27//23 59//23 58//23 26//23
f 14//24 46//24 45//24 13//24
f 28//25 60//25 59//25 27//25
f 15//26 47//26 46//26 14//26
f 2//27 34//27 33//27 1//27
f 29//28 61//28 60//28 28//28
f 16//29 48//29 47//29 15//29
f 3//30 35//30 34//30 2//30
f 30//31 62//31 61//31 29//31
f 17//32 49//32 48//32 16//32
f 68//9 67//9 99//9 100//9
f 95//26 94//26 126//26 127//26
f 82//27 81//27 113//27 114//27
f 69//11 68//11 100//11 101//11
f 96//29 95//29 127//29 128//29
f 83//30 82//30 114//30 115//30
f 70//13 69//13 101//13 102//13
f 66//32 96//32 128//32 98//32
f 84//1 83//1 115//1 116//1
f 71//15 70//15 102//15 103//15
f 85//4 84//4 116//4 117//4
f 72//17 71//17 103//17 104//17
f 86//7 85//7 117//7 118//7
f 73//19 72//19 104//19 105//19
f 87//10 86//10 118//10 119//10
f 74//21 73//21 105//21 106//21
f 88//12 87//12 119//12 120//12
f 75//23 74//23 106//23 107//23
f 89//14 88//14 120//14 121//14
f 76//25 75//25 107//25 108//25
f 90//16 89//16 121//16 122//16
f 77//28 76//28 108//28 109//28
f 91//18 90//18 122//18 123//18
f 78//31 77//31 109//31 110//31
f 92//33 91//33 123//33 124//33
f 79//2 78//2 110//2 111//2
f 65//3 66//3 98//3 97//3
f 93//22 92//22 124//22 125//22
f 80//5 79//5 111//5 112//5
f 67//6 65//6 97//6 99//6
f 94//24 93//24 125//24 126//24
f 81//8 80//8 112//8 113//8
f 58//34 59//34 123//34 122//34
f 1//35 32//35 96//35 66//35
f 7//35 6//35 70//35 71//35
f 59//34 60//34 124//34 123//34
f 33//34 34//34 97//34 98//34
f 8//35 7//35 71//35 72//35
f 60//34 61//34 125//34 124//34
f 34//34 35//34 99//34 97//34
f 9//35 8//35 72//35 73//35
f 61//34 62//34 126//34 125//34
f 35//34 36//34 100//34 99//34
f 10//35 9//35 73//35 74//35
f 62//34 63//34 127//34 126//34
f 36//34 37//34 101//34 100//34
f 11//34 10//34 74//34 75//34
f 63//34 64//34 128//34 127//34
f 37//34 38//34 102//34 101//34
f 12//34 11//34 75//34 76//34
f 64//34 33//34 98//34 128//34
f 38//34 39//34 103//34 102//34
f 13//34 12//34 76//34 77//34
f 39//34 40//34 104//34 103//34
f 14//34 13//34 77//34 78//34
f 40//34 41//34 105//34 104//34
f 15//34 14//34 78//34 79//34
f 41//34 42//34 106//34 105//34
f 16//34 15//34 79//34 80//34
f 42//36 43//36 107//36 106//36
f 17//34 16//34 80//34 81//34
f 43//35 44//35 108//35 107//35
f 18//34 17//34 81//34 82//34
f 44//35 45//35 109//35 108//35
f 19//34 18//34 82//34 83//34
f 45//35 46//35 110//35 109//35
f 20//34 19//34 83//34 84//34
f 46//35 47//35 111//35 110//35
f 21//34 20//34 84//34 85//34
f 47//35 48//35 112//35 111//35
f 22//34 21//34 85//34 86//34
f 48//35 49//35 113//35 112//35
f 23//34 22//34 86//34 87//34
f 49//35 50//35 114//35 113//35
f 24//34 23//34 87//34 88//34
f 50//35 51//35 115//35 114//35
f 25//34 24//34 88//34 89//34
f 51//35 52//35 116//35 115//35
f 26//34 25//34 89//34 90//34
f 52//35 53//35 117//35 116//35
f 27//35 26//35 90//35 91//35
f 53//35 54//35 118//35 117//35
f 28//35 27//35 91//35 92//35
f 2//35 1//35 66//35 65//35
f 54//35 55//35 119//35 118//35
f 29//35 28//35 92//35 93//35
f 3//35 2//35 65//35 67//35
f 55//35 56//35 120//35 119//35
f 30//35 29//35 93//35 94//35
f 4//35 3//35 67//35 68//35
f 56//35 57//35 121//35 120//35
f 31//35 30//35 94//35 95//35
f 5//35 4//35 68//35 69//35
f 57//35 58//35 122//35 121//35
f 32//35 31//35 95//35 96//35
f 6//35 5//35 69//35 70//35
